<svg xmlns="http://www.w3.org/2000/svg" viewBox="0 0 48 48" width="48" height="48">
  <defs>
    <linearGradient id="lightningGrad" x1="0%" y1="0%" x2="0%" y2="100%">
      <stop offset="0%" style="stop-color:#E8F4FF;stop-opacity:1" />
      <stop offset="100%" style="stop-color:#A0C4E8;stop-opacity:1" />
    </linearGradient>
  </defs>
  <rect x="2" y="2" width="44" height="44" rx="8" fill="#1A4D5C" opacity="0.9"/>
  <rect x="14" y="18" width="20" height="14" rx="1" fill="none" stroke="url(#lightningGrad)" stroke-width="1.5" stroke-dasharray="2,2"/>
  <path d="M20 28v-4c0-2 1-3 2-3s2 1 2 3v4" fill="none" stroke="url(#lightningGrad)" stroke-width="1.5"/>
  <path d="M26 28v-6c0-1.5 1-2 1.5-2s1.5 0.5 1.5 2v6" fill="none" stroke="url(#lightningGrad)" stroke-width="1.5" opacity="0.7"/>
  <path d="M16 28v-3c0-1 0.7-1.5 1-1.5s1 0.5 1 1.5v3" fill="none" stroke="url(#lightningGrad)" stroke-width="1.5" opacity="0.7"/>
  <line x1="14" y1="32" x2="34" y2="32" stroke="url(#lightningGrad)" stroke-width="1.5"/>
</svg>
